HIERARCHY
ROOT root
{
	OFFSET 0.000000 0.000000 0.000000
	CHANNELS 6 Xposition Yposition Zposition Zrotation Yrotation Xrotation
	JOINT lhip
	{
		OFFSET 0.058581 -0.082280 -0.017664
		CHANNELS 3 Zrotation Yrotation Xrotation
		JOINT lknee
		{
			OFFSET 0.043451 -0.386469 0.008037
			CHANNELS 3 Zrotation Yrotation Xrotation
			JOINT lankle
			{
				OFFSET -0.014790 -0.426874 -0.037428
				CHANNELS 3 Zrotation Yrotation Xrotation
				JOINT ltoe
				{
					OFFSET 0.041054 -0.060286 0.122042
					CHANNELS 3 Zrotation Yrotation Xrotation
					End Site
					{
						OFFSET 0.000000 0.000000 0.000000
					}
				}
			}
		}
	}
	JOINT rhip
	{
		OFFSET -0.060310 -0.090513 -0.013543
		CHANNELS 3 Zrotation Yrotation Xrotation
		JOINT rknee
		{
			OFFSET -0.043257 -0.383688 -0.004843
			CHANNELS 3 Zrotation Yrotation Xrotation
			JOINT rankle
			{
				OFFSET 0.019056 -0.420046 -0.034562
				CHANNELS 3 Zrotation Yrotation Xrotation
				JOINT rtoe
				{
					OFFSET -0.034840 -0.062106 0.130323
					CHANNELS 3 Zrotation Yrotation Xrotation
					End Site
					{
						OFFSET 0.000000 0.000000 0.000000
					}
				}
			}
		}
	}
	JOINT lowerback
	{
		OFFSET 0.004439 0.124404 -0.038385
		CHANNELS 3 Zrotation Yrotation Xrotation
		JOINT upperback
		{
			OFFSET 0.004488 0.137956 0.026820
			CHANNELS 3 Zrotation Yrotation Xrotation
			JOINT chest
			{
				OFFSET -0.002265 0.056032 0.002855
				CHANNELS 3 Zrotation Yrotation Xrotation
				JOINT lowerneck
				{
					OFFSET -0.013390 0.211636 -0.033468
					CHANNELS 3 Zrotation Yrotation Xrotation
					JOINT upperneck
					{
						OFFSET 0.010113 0.088937 0.050410
						CHANNELS 3 Zrotation Yrotation Xrotation
						End Site
						{
							OFFSET 0.000000 0.000000 0.000000
						}
					}
				}
				JOINT lclavicle
				{
					OFFSET 0.071702 0.114000 -0.018898
					CHANNELS 3 Zrotation Yrotation Xrotation
					JOINT lshoulder
					{
						OFFSET 0.122921 0.045205 -0.019046
						CHANNELS 3 Zrotation Yrotation Xrotation
						JOINT lelbow
						{
							OFFSET 0.255332 -0.015649 -0.022946
							CHANNELS 3 Zrotation Yrotation Xrotation
							JOINT lwrist
							{
								OFFSET 0.265709 0.012698 -0.007375
								CHANNELS 3 Zrotation Yrotation Xrotation
								End Site
								{
									OFFSET 0.000000 0.000000 0.000000
								}
							}
						}
					}
				}
				JOINT rclavicle
				{
					OFFSET -0.082954 0.112472 -0.023707
					CHANNELS 3 Zrotation Yrotation Xrotation
					JOINT rshoulder
					{
						OFFSET -0.113228 0.046853 -0.008472
						CHANNELS 3 Zrotation Yrotation Xrotation
						JOINT relbow
						{
							OFFSET -0.260127 -0.014369 -0.031269
							CHANNELS 3 Zrotation Yrotation Xrotation
							JOINT rwrist
							{
								OFFSET -0.269108 0.006794 -0.006027
								CHANNELS 3 Zrotation Yrotation Xrotation
								End Site
								{
									OFFSET 0.000000 0.000000 0.000000
								}
							}
						}
					}
				}
			}
		}
	}
}
MOTION
Frames: 16
Frame Time: 0.033333
-0.280233 0.400245 1.054163 -179.641921 2.480632 86.313243 2.146650 5.683469 8.636786 -7.340490 -4.386814 11.859732 -1.692898 10.344182 -0.053283 0.000000 -0.000000 0.000000 0.617218 0.252963 -22.869290 2.452957 -4.791484 29.349040 8.855788 -3.465788 2.342522 0.000000 -0.000000 0.000000 -0.164925 -3.780775 7.653036 1.683095 -1.059740 1.173227 -0.959934 -2.125286 0.314680 3.691375 5.330452 -1.847006 1.005136 1.052108 15.964873 -29.801167 1.824932 4.534779 -55.357126 -4.999742 8.219290 9.357589 -14.875949 -5.153547 0.640426 -5.774515 -4.697340 28.432854 0.526592 4.981481 55.157428 3.052245 15.268175 -10.786012 26.729265 -2.025077 8.209108 7.028451 -12.679924 
-0.282445 0.378360 1.058050 -179.345408 2.342089 86.138230 1.565464 5.416845 7.949668 -7.086351 -4.089210 10.598157 -1.343392 10.833993 1.084775 0.000000 -0.000000 0.000000 0.298789 0.950055 -22.023903 2.371178 -4.745785 35.973174 7.622198 -3.927486 0.829395 0.000000 -0.000000 0.000000 -0.326864 -3.928079 7.651797 1.828084 -1.204792 1.197644 -1.091674 -2.113752 0.254520 3.610679 5.315511 -1.533068 0.852818 1.183765 15.824616 -29.934150 1.713969 4.818904 -55.178096 -4.237435 8.036970 9.322486 -14.374604 -5.463052 0.634877 -5.449723 -5.121374 28.567370 0.693516 5.033274 55.072106 2.704519 15.335132 -10.867252 26.727649 -2.078540 8.166269 6.969183 -12.902716 
-0.284389 0.357450 1.060667 -178.766831 2.090949 85.995135 1.000553 4.914026 7.142403 -7.051252 -4.044859 9.699369 -0.908361 11.139869 2.050209 0.000000 -0.000000 0.000000 -0.147038 1.534018 -20.312209 2.917611 -4.143751 42.242593 7.157586 -3.392240 0.431328 0.000000 -0.000000 0.000000 -0.534226 -3.991259 7.417924 2.006755 -1.512365 1.313460 -1.267356 -2.127350 0.258406 3.590030 5.220394 -1.367181 0.705189 1.208540 15.886713 -30.047930 1.583354 4.935566 -55.094165 -3.642581 7.911604 9.394898 -13.771499 -5.739119 0.423454 -5.239488 -5.294753 28.579128 0.674675 4.869895 54.996468 2.405804 15.363893 -10.931030 26.673049 -1.999759 8.336330 6.929994 -13.056863 
-0.285634 0.337293 1.061831 -178.122229 1.785318 85.913522 0.515615 4.259586 6.185176 -7.185538 -3.978442 9.161200 -0.367933 11.207344 2.756959 0.000000 -0.000000 0.000000 -0.374517 1.709378 -17.847914 3.332393 -3.519791 47.641370 6.997152 -3.005785 1.558759 0.000000 -0.000000 0.000000 -0.836031 -3.772379 6.966183 2.207863 -1.889807 1.555854 -1.402217 -2.124617 0.274897 3.595480 4.879388 -1.256180 0.689765 1.263621 15.904069 -30.216337 1.463335 5.033361 -54.931770 -3.236059 7.761507 9.451534 -13.386160 -5.944247 0.500253 -4.999693 -5.322606 28.525350 0.621182 4.674360 54.998275 2.109799 15.363809 -11.082216 26.586317 -2.092962 8.481769 6.897752 -13.219270 
-0.286329 0.317547 1.061677 -177.700274 1.412655 85.931281 -0.063617 3.506049 5.131637 -7.285181 -3.680818 8.679266 0.249679 11.247321 3.331849 0.000000 -0.000000 0.000000 -0.424331 1.543736 -14.761423 3.283961 -2.922697 51.577859 6.889827 -3.181883 4.063051 0.000000 -0.000000 0.000000 -1.156977 -3.300534 6.309208 2.343659 -2.197544 1.836538 -1.487928 -2.033857 0.249711 3.572549 4.308896 -1.064995 0.768677 1.417934 15.895701 -30.397721 1.402951 5.200086 -54.743044 -2.903346 7.629653 9.441888 -13.316933 -6.017354 0.612842 -4.921021 -5.524580 28.474847 0.622010 4.597780 54.948073 1.829312 15.384500 -11.285713 26.442576 -2.405582 8.615528 6.903939 -13.417885 
-0.286617 0.297458 1.060608 -177.568090 1.008474 86.105982 -0.701408 2.693685 3.917498 -7.310482 -3.134831 8.152752 0.897427 11.272411 3.828905 0.000000 -0.000000 0.000000 -0.373274 1.212264 -11.285469 3.079094 -1.979476 53.643114 7.087090 -3.269346 7.410392 0.000000 -0.000000 0.000000 -1.414458 -2.636509 5.538236 2.408442 -2.423687 1.969718 -1.547945 -1.877844 0.242092 3.519283 3.671405 -0.929337 0.877481 1.606184 16.102664 -30.549978 1.445347 5.292334 -54.642155 -2.632188 7.566571 9.432679 -13.283367 -6.012156 0.478380 -5.049501 -5.726677 28.376163 0.600679 4.515986 54.878339 1.646437 15.503669 -11.448733 26.174884 -2.610148 8.874415 6.995709 -13.462126 
-0.286434 0.276599 1.059050 -177.789448 0.602169 86.379005 -1.317875 1.891012 2.532438 -7.207728 -2.611993 7.682911 1.370523 11.166633 4.300839 0.000000 -0.000000 0.000000 -0.322890 0.725958 -7.625810 3.025385 -0.496509 53.749559 7.988880 -2.858053 10.732903 0.000000 -0.000000 0.000000 -1.595444 -1.805525 4.727823 2.410641 -2.589972 2.065868 -1.576656 -1.654148 0.209095 3.416518 3.085786 -0.827473 0.995810 1.779396 16.311814 -30.663467 1.570504 5.265712 -54.674585 -2.380676 7.605455 9.427523 -13.308411 -5.746780 0.365786 -5.179689 -5.670056 28.213851 0.522913 4.425476 54.823912 1.630168 15.587001 -11.554001 25.915982 -2.678655 9.088321 7.120835 -13.386530 
-0.285778 0.254780 1.057178 -178.335318 0.116812 86.695270 -1.941658 1.047391 0.923921 -7.039628 -2.020313 7.400402 1.848217 10.984382 4.925666 0.000000 -0.000000 0.000000 -0.510916 0.024948 -4.114730 3.198719 1.404458 52.198546 8.809477 -2.379637 14.725197 0.000000 -0.000000 0.000000 -1.813988 -0.810059 3.931141 2.343992 -2.716647 2.206807 -1.589926 -1.416350 0.158831 3.246132 2.537704 -0.825698 1.202204 1.969142 16.416167 -30.717188 1.727202 5.255188 -54.794969 -2.166173 7.699001 9.408530 -13.432786 -5.336043 0.241467 -5.320478 -5.686984 28.063643 0.442117 4.435016 54.787556 1.784391 15.677052 -11.711480 25.804814 -2.911490 9.207605 7.293467 -13.329579 
-0.284578 0.231481 1.055028 -179.067664 -0.383613 87.038441 -2.410070 0.202022 -0.996002 -6.938086 -1.056869 7.409231 2.244860 10.723335 5.617101 0.000000 -0.000000 0.000000 -0.858718 -0.781533 -1.062185 3.159258 3.107062 49.412831 9.094436 -2.426174 18.782581 0.000000 -0.000000 0.000000 -2.004735 0.226048 3.243723 2.182523 -2.806424 2.334254 -1.607441 -1.214138 0.102711 3.019254 2.036424 -0.886351 1.462838 2.241654 16.442274 -30.692746 1.857354 5.315934 -54.986403 -2.028966 7.784385 9.380367 -13.521983 -4.958454 0.177968 -5.451315 -5.822167 27.898986 0.450516 4.527626 54.852779 2.069447 15.862616 -11.858826 25.803310 -3.206410 9.260028 7.509822 -13.346665 
-0.282798 0.206731 1.052500 -179.959233 -0.827897 87.309130 -2.649523 -0.542662 -3.011235 -6.863644 0.023242 7.562303 2.421891 10.429780 6.312875 0.000000 -0.000000 0.000000 -1.197055 -1.564734 1.709700 2.453249 4.248617 45.192249 8.652680 -3.075397 21.965962 0.000000 -0.000000 0.000000 -2.096174 1.183713 2.732601 1.920886 -2.844491 2.481041 -1.602945 -1.020807 0.033114 2.714353 1.633709 -0.918399 1.738626 2.607821 16.387815 -30.628924 2.018632 5.434535 -55.237551 -1.868869 7.858805 9.379604 -13.825717 -4.334392 0.110384 -5.526480 -6.034929 27.673251 0.573623 4.700157 55.021018 2.420302 16.091121 -11.970663 26.147210 -3.258569 9.353755 7.545246 -13.399540 
-0.280391 0.180224 1.049424 178.992880 -1.079910 87.499745 -2.523637 -1.067011 -5.028024 -6.775774 1.068442 7.722376 2.242050 10.051853 6.869268 0.000000 -0.000000 0.000000 -1.379762 -2.441364 4.263182 1.375295 5.153738 39.393953 7.321165 -3.591456 22.976515 0.000000 -0.000000 0.000000 -1.897204 2.065617 2.518449 1.574432 -2.871628 2.504454 -1.579471 -0.803266 -0.034801 2.309287 1.327784 -0.934433 2.045456 2.969860 16.404068 -30.571393 2.185384 5.498105 -55.631953 -1.670854 7.894356 9.471395 -14.099273 -3.768082 0.047854 -5.548587 -6.552213 27.424435 0.753699 4.926171 55.151148 2.736667 16.220065 -12.027893 26.776929 -3.009603 9.368115 7.732411 -13.408674 
-0.277125 0.151430 1.045786 177.632223 -1.193485 87.774978 -2.181491 -1.281585 -7.194769 -6.594459 2.131792 7.774025 1.999632 9.925358 7.385290 0.000000 -0.000000 0.000000 -1.394921 -2.956186 5.915479 1.219535 7.003115 35.220294 6.659767 -2.730984 18.181870 0.000000 -0.000000 0.000000 -1.568637 2.966176 2.344168 1.308204 -2.818464 2.486457 -1.630779 -0.544699 -0.010652 2.149288 1.587771 -1.147267 2.145000 2.783840 16.649897 -30.534356 2.305588 5.200083 -56.108126 -1.343959 8.099063 9.584505 -14.185968 -3.778408 0.358101 -5.240017 -7.162777 27.323109 0.923869 5.041560 55.084611 3.027704 16.243414 -11.972549 27.623040 -2.710205 9.071331 7.888066 -13.405904 
-0.273856 0.120888 1.042288 176.431761 -1.212857 87.778261 -1.930221 -1.404123 -9.136887 -6.069320 3.213961 7.649617 1.656326 10.039794 8.476421 0.000000 -0.000000 0.000000 -1.295548 -3.157737 6.988220 0.805673 7.415980 32.490058 6.293450 -2.489628 12.459962 0.000000 -0.000000 0.000000 -1.123457 3.536232 2.809745 1.052907 -2.686045 2.206616 -1.662207 -0.319026 0.138606 2.108961 2.035722 -1.519619 2.116974 2.515281 17.027092 -30.568637 2.439478 4.802384 -56.593348 -1.063669 8.316911 9.652089 -14.354673 -3.668332 0.556887 -5.016402 -7.306994 27.199641 1.110066 4.969281 55.022808 3.317302 16.227744 -11.869966 28.370558 -2.454144 8.621054 8.085810 -13.292171 
-0.270042 0.088452 1.039615 175.417556 -1.160337 87.764199 -1.379609 -1.434918 -11.132665 -5.677220 4.547645 7.266248 0.960501 9.981362 10.599177 0.000000 -0.000000 0.000000 -1.251333 -3.373720 7.532099 0.684407 6.877241 29.488188 6.128523 -2.502072 8.415805 0.000000 -0.000000 0.000000 -0.721761 3.964134 3.511472 0.846576 -2.603696 1.991355 -1.616281 -0.124620 0.168978 1.945796 2.397616 -1.816526 2.258564 2.352273 17.210112 -30.586345 2.510748 4.520108 -57.136364 -0.850902 8.524740 9.718262 -14.663767 -3.455643 0.654958 -4.861531 -7.223512 27.010173 1.290008 4.962151 55.050913 3.670385 16.069793 -11.760164 28.935299 -2.298082 8.121850 8.278092 -13.075417 
-0.265265 0.053456 1.037919 174.515245 -1.129184 87.955471 -0.508568 -1.180679 -13.336526 -5.504169 5.743001 6.364822 -0.199374 9.747620 14.337338 0.000000 -0.000000 0.000000 -0.921539 -3.518263 6.723760 0.732724 6.353885 28.056404 4.633722 -2.449941 3.782440 0.000000 -0.000000 0.000000 -0.668093 4.318408 4.292563 0.758086 -2.427285 1.889164 -1.492248 -0.050147 0.137631 1.915399 3.067523 -2.381362 2.365662 1.836270 17.237987 -30.534161 2.532960 4.269574 -57.605211 -0.792005 8.773056 9.780378 -15.106828 -3.412847 0.775581 -4.582862 -7.539449 27.007453 1.540491 5.101243 55.017294 4.093951 15.942071 -11.793078 29.605844 -2.113426 7.630846 8.402205 -13.289730 
-0.260582 0.017740 1.038047 174.227718 -0.983683 87.803897 0.373140 -0.642194 -14.903967 -5.269041 6.810605 4.654537 -1.938786 9.696593 19.874997 0.000000 -0.000000 0.000000 -0.218735 -3.420517 5.386924 0.813341 5.146152 27.672702 3.283659 -2.763117 0.529354 0.000000 -0.000000 0.000000 -0.548526 4.196131 5.773113 0.668191 -2.332724 1.738072 -1.353918 -0.054846 0.086260 1.828171 3.705399 -3.030862 2.525030 1.432524 16.993784 -30.702509 2.384354 4.081171 -57.744232 -0.733384 8.953163 9.862394 -15.727985 -3.563261 0.815776 -4.444914 -7.569491 26.964334 1.934505 5.174369 55.001324 4.409660 15.884564 -11.755731 30.304838 -2.059709 7.111819 8.578720 -13.945564 
